#!OML:ASF F:\VICON\USERDATA\INSTALL\rory3\rory3.ASF
:FULLY-SPECIFIED
:DEGREES
71
root 0.7680210749697041 17.669820503426457 18.684260339099033 -2.535516945901549 0.41250874565264173 0.535987183313086
lfemur -0.2759752401613209 -2.7861747850823297 -25.101025456889477
ltibia 38.35106547442078
lfoot -7.188609700318026 -2.537896005882447
ltoes -14.152243886065374
rfemur -27.947764632914783 -0.19103317902842987 21.27972574706941
rtibia 36.147567087314364
rfoot -0.40892419993315965 -12.925849564541528
rtoes 5.328377656407401
lowerback 11.918048166469672 -0.509817057683412 -2.7271732384345855
upperback 0.2601484955247525 -0.7824560154947964 1.169437647586638
thorax -6.01038437709162 -0.3540674981929153 2.3382937896458396
lowerneck -16.228342329292897 -3.273798349876933 -2.218068795580041
upperneck 21.59038568041549 -4.622840986614265 2.578569514107863
head 9.567828564378944 -2.0754616507627173 0.6254618489232993
lclavicle 2.9741508586839554e-16 5.419212075365419e-17
lhumerus -30.25032430586298 3.304946095983096 80.58749407663457
lradius 31.229341218543418
lwrist 9.225183558476784
lhand -29.007483530967725 19.333718918856373
lfingers 7.125020000000001
lthumb -2.15969362561491 49.51249740016026
rclavicle 3.0749225251904836e-16 6.114567795940262e-17
rhumerus -31.642383263985156 -19.199685376757266 -78.67864560542688
rradius 29.697217822915963
rwrist 2.8127150736086737
rhand -17.51779335538411 22.03613906032703
rfingers 7.125020000000001
rthumb 8.616202145640388 -8.086841685121186
72
root 0.6229406642909007 17.695559383425927 19.223821817364513 -1.7606841993694164 1.1521743215074647 -0.09601147686525024
lfemur 1.2550346198045963 -2.7711384326526325 -24.299345939080887
ltibia 39.57356667961144
lfoot -7.290539191584959 -2.860228279353931
ltoes -14.529799427143853
rfemur -28.990974675950042 1.255112899496453 21.377864792575778
rtibia 28.373401265685516
rfoot -1.0856307674358092 -13.437473407563129
rtoes 4.691776863458726
lowerback 11.927369945958386 -0.7851342358289309 -2.4912367202394377
upperback 0.252866807596519 -1.1458299218199899 1.3574660999270423
thorax -5.971091866743701 -0.514619481038488 2.822505202539223
lowerneck -16.222126875729032 -3.3548122468105612 -2.415193123892788
upperneck 21.41136854261571 -4.730372061812933 2.8002522551978037
head 9.50409726645438 -2.11252503165366 0.7127837204727784
lclavicle 2.9815415139979114e-16 5.472343473208108e-17
lhumerus -30.2277020874481 2.932104262707985 80.56113737379769
lradius 31.617778219122073
lwrist 8.86423835114598
lhand -28.790653201219065 20.0338804562975
lfingers 7.125020000000001
lthumb -1.9890411638749226 50.060836001967594
rclavicle 3.0665378696759025e-16 6.049773156641386e-17
rhumerus -31.933765286452456 -18.811521229116345 -78.5213968834086
rradius 29.45593297857325
rwrist 2.68803920763815
rhand -17.425421944446512 22.314478554278935
rfingers 7.125020000000001
rthumb 8.697952274904871 -7.918335775844022
73
root 0.4990109779775532 17.687413714728066 19.38422611639966 -1.141134351459385 1.9736444780585805 0.28744710568321263
lfemur 3.6101129304844006 -2.1254408986095013 -24.40225769826945
ltibia 39.994112093510225
lfoot -7.237278505320162 -3.3429915064043
ltoes -15.103769652023802
rfemur -29.151647928425433 2.809941256287289 20.004341010209053
rtibia 21.875704229645816
rfoot -2.7634153182310524 -13.389703974449027
rtoes 4.539263716185722
lowerback 11.355699351867989 -0.9318069206542354 -2.7551982118275156
upperback 0.35174839419647397 -1.4438940877892292 1.4617784312622413
thorax -5.825779554493377 -0.6473804798795614 3.330825352061612
lowerneck -16.26536998903727 -3.4370036581257475 -2.56962015429256
upperneck 21.17937654712127 -4.84306424848929 3.0003507946122276
head 9.435218704419585 -2.151052957000614 0.7873933037219931
lclavicle 2.9813184727336533e-16 5.4708944519998716e-17
lhumerus -30.488120115871407 2.5291812235670585 80.35137387898433
lradius 32.28007189669851
lwrist 8.846126397584909
lhand -28.700840858305053 20.299669000264426
lfingers 7.125020000000001
lthumb -1.9364930080956806 50.194917150510506
rclavicle 3.0511176405238066e-16 5.933469061097488e-17
rhumerus -32.392065710008964 -18.65614590573293 -78.41148775805183
rradius 29.38218716304282
rwrist 2.5277501887808786
rhand -17.38336031107624 22.56681675355865
rfingers 7.125020000000001
rthumb 8.736283144747368 -7.641306975739831
74
root 0.40859343901988887 17.62578232038324 19.619054982875355 -1.036576925177161 2.6944772650308457 0.10910174962258168
lfemur 5.627263990939144 -1.4937358850570304 -23.9277147480873
ltibia 40.74545734718509
lfoot -6.5750006235623015 -3.9373534438705713
ltoes -15.65297224344747
rfemur -28.75749916902779 4.763853271318805 19.317499259880147
rtibia 17.816010318720064
rfoot -4.270711301583374 -12.523476293591374
rtoes 5.167298904539251
lowerback 10.615155247326875 -1.1734600897067118 -2.5326333142798223
upperback 0.31230896676347275 -1.7620295784380107 1.6527156538022179
thorax -5.724477561564199 -0.8079490453855647 3.7417036463613105
lowerneck -16.302959408451773 -3.5122129916306433 -2.6844052879146654
upperneck 20.98220273904851 -4.948799714677889 3.1657343974531433
head 9.382500955114399 -2.1870506514226693 0.8434267768342847
lclavicle 2.978659832689502e-16 5.452150817164831e-17
lhumerus -30.77076534730879 2.4975749585964975 80.09360195531515
lradius 32.88414177107089
lwrist 9.345600807359475
lhand -28.75249030689683 20.025484215468868
lfingers 7.125020000000001
lthumb -1.9815389221812643 49.911317838128596
rclavicle 3.0438844750197406e-16 5.884084229278201e-17
rhumerus -32.88529019686216 -18.661662149570365 -78.29477741446897
rradius 29.266630689176843
rwrist 2.4005151340497717
rhand -17.344085029463823 22.769970035694442
rfingers 7.125020000000001
rthumb 8.770570439607551 -7.36165367492381
